<svg width="256" height="256" viewBox="0 0 256 256" fill="none" xmlns="http://www.w3.org/2000/svg">
<g clip-path="url(#clip0_306_51)">
<circle cx="128" cy="128" r="128" fill="#D4AF37"/>
<path d="M60.0391 93.1678L71.205 73.6279H115.09L125.965 87.2208L128.004 89.4675L130.042 87.2208L140.917 73.6279H184.802L195.968 93.1678V110.159H184.641L195.968 129.982V173.309H150.659V168.778H190.305V164.247H150.659V159.716H184.641V155.185H150.659V150.654H178.977V146.124H150.659V141.593H173.313V137.062H150.659V132.531H167.65V128H150.659V123.469H161.986V118.938H150.659V114.407H156.322V109.876H150.659L132.535 132.531H123.473L105.349 109.876H99.6851V114.407H105.349V118.938H94.0214V123.469H105.349V128H88.3576V132.531H105.349V137.062H82.6939V141.593H105.349V146.124H77.0302V150.654H105.349V155.185H71.3665V159.716H105.349V164.247H65.7028V168.778H105.349V173.309H60.0391V129.982L71.3665 110.159H60.0391V93.1678Z" fill="#02010E"/>
<path d="M60.0391 177.84V182.371H105.349V177.84H60.0391Z" fill="#02010E"/>
<path d="M150.659 177.84V182.371H195.968V177.84H150.659Z" fill="#02010E"/>
</g>
<defs>
<clipPath id="clip0_306_51">
<rect width="256" height="256" fill="white"/>
</clipPath>
</defs>
</svg>
